<svg xmlns="http://www.w3.org/2000/svg" xmlns:xlink="http://www.w3.org/1999/xlink" contentScriptType="text/ecmascript" width="375pt" zoomAndPan="magnify" contentStyleType="text/css" viewBox="0 0 375 374.999991" height="374.999991pt" preserveAspectRatio="xMidYMid meet" version="1.2"><defs><g/><filter xmlns:xlink="http://www.w3.org/1999/xlink" x="0%" y="0%" width="100%" xlink:type="simple" filterUnits="objectBoundingBox" xlink:actuate="onLoad" id="alpha" height="100%" xlink:show="other" xml:id="alpha"><feColorMatrix values="0 0 0 0 1 0 0 0 0 1 0 0 0 0 1 0 0 0 1 0" type="matrix" in="SourceGraphic"/></filter><clipPath xml:id="clip2" id="clip2"><path d="M 0 0.28125 L 206.398438 0.28125 L 206.398438 179 L 0 179 Z M 0 0.28125 "/></clipPath><clipPath xml:id="clip1" id="clip1"><rect x="0" width="207" y="0" height="180"/></clipPath></defs><g xml:id="surface1" id="surface1"><rect x="0" width="375" y="0" height="374.999991" style="fill:rgb(100%,100%,100%);fill-opacity:1;stroke:none;"/><rect x="0" width="375" y="0" height="374.999991" style="fill:rgb(100%,100%,100%);fill-opacity:1;stroke:none;"/><rect x="0" width="375" y="0" height="374.999991" style="fill:rgb(100%,100%,100%);fill-opacity:1;stroke:none;"/><path style=" stroke:none;fill-rule:nonzero;fill:rgb(0%,0%,0%);fill-opacity:1;" d="M 30.304688 258.25 L 133.429688 79.640625 L 236.554688 258.25 Z M 30.304688 258.25 "/><g mask="url(#mask0)" transform="matrix(1,0,0,1,90,101)"><g xml:id="surface5" id="surface5" clip-path="url(#clip1)"><g clip-rule="nonzero" clip-path="url(#clip2)"><path style=" stroke:none;fill-rule:nonzero;fill:rgb(40.388489%,28.239441%,0.389099%);fill-opacity:1;" d="M 0.0859375 178.992188 L 103.210938 0.378906 L 206.335938 178.992188 Z M 0.0859375 178.992188 "/></g></g><mask xml:id="mask0" id="mask0"><g filter="url(#alpha)"><rect x="0" width="375" y="0" height="374.999991" style="fill:rgb(0%,0%,0%);fill-opacity:0.2471;stroke:none;"/></g></mask></g><path style=" stroke:none;fill-rule:nonzero;fill:rgb(100%,39.99939%,76.858521%);fill-opacity:1;" d="M 107.167969 167.5625 C 105.761719 167.5625 104.351562 167.269531 102.945312 166.683594 C 97.4375 164.332031 94.855469 157.992188 97.203125 152.476562 C 103.355469 137.800781 117.601562 128.347656 133.488281 128.347656 C 149.375 128.347656 163.617188 137.800781 169.832031 152.476562 C 172.175781 157.992188 169.597656 164.390625 164.085938 166.683594 C 158.578125 169.03125 152.1875 166.445312 149.902344 160.929688 C 147.085938 154.355469 140.640625 150.070312 133.488281 150.070312 C 126.335938 150.070312 119.945312 154.355469 117.132812 160.929688 C 115.433594 165.039062 111.386719 167.5625 107.167969 167.5625 Z M 107.167969 167.5625 "/><path style=" stroke:none;fill-rule:nonzero;fill:rgb(100%,34.118652%,34.118652%);fill-opacity:1;" d="M 111.574219 153.960938 C 110.40625 153.960938 109.234375 153.714844 108.0625 153.226562 C 103.476562 151.273438 101.332031 145.996094 103.28125 141.40625 C 108.40625 129.195312 120.257812 121.328125 133.476562 121.328125 C 146.695312 121.328125 158.550781 129.195312 163.722656 141.40625 C 165.671875 145.996094 163.527344 151.324219 158.941406 153.226562 C 154.355469 155.183594 149.039062 153.03125 147.136719 148.441406 C 144.792969 142.96875 139.429688 139.402344 133.476562 139.402344 C 127.527344 139.402344 122.210938 142.96875 119.867188 148.441406 C 118.453125 151.859375 115.085938 153.960938 111.574219 153.960938 Z M 111.574219 153.960938 "/><path style=" stroke:none;fill-rule:nonzero;fill:rgb(100%,8.628845%,8.628845%);fill-opacity:1;" d="M 120.136719 137.65625 C 119.421875 137.65625 118.710938 137.507812 118 137.210938 C 115.210938 136.019531 113.902344 132.8125 115.089844 130.019531 C 118.207031 122.589844 125.417969 117.804688 133.457031 117.804688 C 141.5 117.804688 148.710938 122.589844 151.855469 130.019531 C 153.042969 132.8125 151.738281 136.050781 148.949219 137.210938 C 146.160156 138.398438 142.925781 137.089844 141.765625 134.296875 C 140.34375 130.96875 137.078125 128.800781 133.457031 128.800781 C 129.839844 128.800781 126.605469 130.96875 125.179688 134.296875 C 124.320312 136.378906 122.273438 137.65625 120.136719 137.65625 Z M 120.136719 137.65625 "/><path style=" stroke:none;fill-rule:nonzero;fill:rgb(54.899597%,32.159424%,100%);fill-opacity:1;" d="M 125.148438 130.167969 C 124.703125 130.167969 124.261719 130.078125 123.816406 129.890625 C 122.082031 129.152344 121.265625 127.152344 122.007812 125.414062 C 123.945312 120.785156 128.4375 117.804688 133.445312 117.804688 C 138.457031 117.804688 142.949219 120.785156 144.90625 125.414062 C 145.644531 127.152344 144.832031 129.167969 143.09375 129.890625 C 141.359375 130.632812 139.34375 129.816406 138.621094 128.078125 C 137.734375 126.003906 135.703125 124.652344 133.445312 124.652344 C 131.191406 124.652344 129.175781 126.003906 128.289062 128.078125 C 127.753906 129.375 126.480469 130.167969 125.148438 130.167969 Z M 125.148438 130.167969 "/><g style="fill:rgb(100%,100%,100%);fill-opacity:1;"><g transform="translate(83.911522, 196.229743)"><path style="stroke:none;" d="M 2.296875 0 L 2.296875 -21.265625 L 8.078125 -21.265625 L 8.078125 0 Z M 2.296875 0 "/></g></g><g style="fill:rgb(100%,100%,100%);fill-opacity:1;"><g transform="translate(94.285479, 196.229743)"><path style="stroke:none;" d="M 11.5625 0 L 7.21875 -15.328125 L 7.078125 -15.328125 C 7.285156 -12.710938 7.390625 -10.679688 7.390625 -9.234375 L 7.390625 0 L 2.296875 0 L 2.296875 -21.265625 L 9.953125 -21.265625 L 14.390625 -6.171875 L 14.5 -6.171875 L 18.859375 -21.265625 L 26.515625 -21.265625 L 26.515625 0 L 21.234375 0 L 21.234375 -9.328125 C 21.234375 -9.804688 21.238281 -10.34375 21.25 -10.9375 C 21.269531 -11.53125 21.335938 -12.984375 21.453125 -15.296875 L 21.328125 -15.296875 L 17.03125 0 Z M 11.5625 0 "/></g></g><g style="fill:rgb(100%,100%,100%);fill-opacity:1;"><g transform="translate(123.093941, 196.229743)"><path style="stroke:none;" d="M 15.34375 0 L 14.296875 -3.984375 L 7.390625 -3.984375 L 6.3125 0 L 0 0 L 6.9375 -21.359375 L 14.609375 -21.359375 L 21.640625 0 Z M 13.109375 -8.703125 L 12.1875 -12.1875 C 11.976562 -12.96875 11.71875 -13.972656 11.40625 -15.203125 C 11.101562 -16.429688 10.90625 -17.316406 10.8125 -17.859375 C 10.71875 -17.359375 10.539062 -16.539062 10.28125 -15.40625 C 10.03125 -14.269531 9.460938 -12.035156 8.578125 -8.703125 Z M 13.109375 -8.703125 "/></g></g><g style="fill:rgb(100%,100%,100%);fill-opacity:1;"><g transform="translate(144.729388, 196.229743)"><path style="stroke:none;" d="M 22.546875 0 L 15.015625 0 L 7.25 -14.984375 L 7.109375 -14.984375 C 7.296875 -12.628906 7.390625 -10.832031 7.390625 -9.59375 L 7.390625 0 L 2.296875 0 L 2.296875 -21.265625 L 9.8125 -21.265625 L 17.546875 -6.484375 L 17.640625 -6.484375 C 17.503906 -8.628906 17.4375 -10.351562 17.4375 -11.65625 L 17.4375 -21.265625 L 22.546875 -21.265625 Z M 22.546875 0 "/></g></g><g style="fill:rgb(100%,100%,100%);fill-opacity:1;"><g transform="translate(169.580325, 196.229743)"><path style="stroke:none;" d="M 14.921875 0 L 2.296875 0 L 2.296875 -21.265625 L 14.921875 -21.265625 L 14.921875 -16.65625 L 8.046875 -16.65625 L 8.046875 -13.3125 L 14.421875 -13.3125 L 14.421875 -8.703125 L 8.046875 -8.703125 L 8.046875 -4.6875 L 14.921875 -4.6875 Z M 14.921875 0 "/></g></g><g style="fill:rgb(100%,100%,100%);fill-opacity:1;"><g transform="translate(118.412582, 235.162528)"><path style="stroke:none;" d="M 18.296875 -7.296875 C 18.296875 -5.804688 17.914062 -4.484375 17.15625 -3.328125 C 16.40625 -2.171875 15.316406 -1.269531 13.890625 -0.625 C 12.472656 0.0078125 10.804688 0.328125 8.890625 0.328125 C 7.285156 0.328125 5.941406 0.21875 4.859375 0 C 3.773438 -0.226562 2.648438 -0.625 1.484375 -1.1875 L 1.484375 -6.96875 C 2.710938 -6.332031 3.992188 -5.832031 5.328125 -5.46875 C 6.671875 -5.113281 7.898438 -4.9375 9.015625 -4.9375 C 9.984375 -4.9375 10.691406 -5.101562 11.140625 -5.4375 C 11.585938 -5.78125 11.8125 -6.210938 11.8125 -6.734375 C 11.8125 -7.066406 11.71875 -7.351562 11.53125 -7.59375 C 11.351562 -7.84375 11.0625 -8.09375 10.65625 -8.34375 C 10.257812 -8.59375 9.195312 -9.109375 7.46875 -9.890625 C 5.90625 -10.597656 4.734375 -11.285156 3.953125 -11.953125 C 3.171875 -12.617188 2.585938 -13.382812 2.203125 -14.25 C 1.828125 -15.125 1.640625 -16.148438 1.640625 -17.328125 C 1.640625 -19.535156 2.441406 -21.257812 4.046875 -22.5 C 5.660156 -23.738281 7.875 -24.359375 10.6875 -24.359375 C 13.175781 -24.359375 15.710938 -23.785156 18.296875 -22.640625 L 16.3125 -17.625 C 14.0625 -18.65625 12.125 -19.171875 10.5 -19.171875 C 9.65625 -19.171875 9.039062 -19.019531 8.65625 -18.71875 C 8.269531 -18.425781 8.078125 -18.0625 8.078125 -17.625 C 8.078125 -17.15625 8.320312 -16.734375 8.8125 -16.359375 C 9.300781 -15.984375 10.625 -15.304688 12.78125 -14.328125 C 14.851562 -13.390625 16.289062 -12.382812 17.09375 -11.3125 C 17.894531 -10.25 18.296875 -8.910156 18.296875 -7.296875 Z M 18.296875 -7.296875 "/></g></g><g style="fill:rgb(100%,100%,100%);fill-opacity:1;"><g transform="translate(137.831186, 235.162528)"><path style="stroke:none;" d="M 23.171875 0 L 16.65625 0 L 16.65625 -9.796875 L 9.109375 -9.796875 L 9.109375 0 L 2.59375 0 L 2.59375 -24.015625 L 9.109375 -24.015625 L 9.109375 -15.109375 L 16.65625 -15.109375 L 16.65625 -24.015625 L 23.171875 -24.015625 Z M 23.171875 0 "/></g></g><g style="fill:rgb(100%,100%,100%);fill-opacity:1;"><g transform="translate(163.607658, 235.162528)"><path style="stroke:none;" d="M 25.0625 -12.046875 C 25.0625 -8.003906 24.070312 -4.929688 22.09375 -2.828125 C 20.113281 -0.722656 17.210938 0.328125 13.390625 0.328125 C 9.617188 0.328125 6.726562 -0.726562 4.71875 -2.84375 C 2.707031 -4.957031 1.703125 -8.035156 1.703125 -12.078125 C 1.703125 -16.066406 2.703125 -19.113281 4.703125 -21.21875 C 6.703125 -23.332031 9.609375 -24.390625 13.421875 -24.390625 C 17.242188 -24.390625 20.140625 -23.34375 22.109375 -21.25 C 24.078125 -19.164062 25.0625 -16.097656 25.0625 -12.046875 Z M 8.546875 -12.046875 C 8.546875 -7.398438 10.160156 -5.078125 13.390625 -5.078125 C 15.023438 -5.078125 16.238281 -5.640625 17.03125 -6.765625 C 17.832031 -7.890625 18.234375 -9.648438 18.234375 -12.046875 C 18.234375 -14.441406 17.828125 -16.210938 17.015625 -17.359375 C 16.210938 -18.503906 15.015625 -19.078125 13.421875 -19.078125 C 10.171875 -19.078125 8.546875 -16.734375 8.546875 -12.046875 Z M 8.546875 -12.046875 "/></g></g><g style="fill:rgb(100%,100%,100%);fill-opacity:1;"><g transform="translate(190.419132, 235.162528)"><path style="stroke:none;" d="M 20.015625 -16.375 C 20.015625 -13.695312 19.222656 -11.625 17.640625 -10.15625 C 16.066406 -8.695312 13.820312 -7.96875 10.90625 -7.96875 L 9.078125 -7.96875 L 9.078125 0 L 2.59375 0 L 2.59375 -24.015625 L 10.90625 -24.015625 C 13.9375 -24.015625 16.210938 -23.351562 17.734375 -22.03125 C 19.253906 -20.707031 20.015625 -18.820312 20.015625 -16.375 Z M 9.078125 -13.25 L 10.265625 -13.25 C 11.242188 -13.25 12.019531 -13.523438 12.59375 -14.078125 C 13.164062 -14.628906 13.453125 -15.382812 13.453125 -16.34375 C 13.453125 -17.96875 12.554688 -18.78125 10.765625 -18.78125 L 9.078125 -18.78125 Z M 9.078125 -13.25 "/></g></g><path style="fill:none;stroke-width:1;stroke-linecap:round;stroke-linejoin:miter;stroke:rgb(100%,100%,100%);stroke-opacity:1;stroke-miterlimit:4;" d="M 0.500477 0.000350808 L 24.660426 0.000350808 " transform="matrix(3.756055,0,0,3.75,36.303774,245.639309)"/><path style="fill:none;stroke-width:1;stroke-linecap:round;stroke-linejoin:miter;stroke:rgb(100%,34.118652%,34.118652%);stroke-opacity:1;stroke-miterlimit:4;" d="M 0.500251 0.000258984 L 17.41903 0.000597494 " transform="matrix(-3.587706,-1.148338,1.143155,-3.571512,296.317895,278.739445)"/><path style="fill:none;stroke-width:1;stroke-linecap:round;stroke-linejoin:miter;stroke:rgb(100%,34.118652%,34.118652%);stroke-opacity:1;stroke-miterlimit:4;" d="M 0.500265 -0.000471113 L 18.134862 0.00052288 " transform="matrix(3.548667,1.190641,-1.192841,3.555226,30.067913,257.83182)"/><path style="fill:none;stroke-width:1;stroke-linecap:round;stroke-linejoin:miter;stroke:rgb(100%,34.118652%,34.118652%);stroke-opacity:1;stroke-miterlimit:4;" d="M 0.499941 -0.000127441 L 17.056078 0.000141687 " transform="matrix(3.533926,1.284163,-1.280742,3.524514,133.369801,79.292037)"/></g></svg>