<svg xmlns="http://www.w3.org/2000/svg" height="250px" width="250px" xmlns:xlink="http://www.w3.org/1999/xlink" contentScriptType="text/ecmascript" version="1.2">

<style type="text/css">
	.st0{fill:#444444;}
	.st1{fill:#A51B1D;}
	.st2{fill:none;stroke:#444444;stroke-width:0.2;stroke-miterlimit:10;}
	.st3{clip-path:url(#SVGID_2_);fill:#A5191D;}
	.st4{clip-path:url(#SVGID_2_);fill:#FFFFFF;}
	.st5{clip-path:url(#SVGID_2_);fill:#A51B1D;}
	.st6{fill:#FFFFFF;}
</style>

<g>
	<defs>
		<path id="SVGID_1_" d="M247.4,12.4l-0.1,255L2.6,267.3l0.1-255c0-6.6,5.4-12,12-12l220.7,0.1C242,0.4,247.4,5.8,247.4,12.4z"/>
	</defs>
	<clipPath id="SVGID_2_">
		<use xlink:href="#SVGID_1_" style="overflow:visible;"/>
	</clipPath>
	<path class="st3" d="M247.7,11.6l-0.1,258l-245-0.1l0.1-258c0-6.6,5.4-12,12-12l221,0.1C242.3-0.4,247.7,5,247.7,11.6z"/>
	<path id="Chien" class="st4" d="M1.5,172c0,0,29.2-19.2,47.5-28c0,0,1.6-15.1,3.3-23.9c2.8-13.9,14.9-35.9,18.9-43.9   c0.7-1.3,1.1-2.8,1.4-4.3c1.6-9.6,9.6-48.4,32.9-55.4c0,0,3.3,4.4,2.5,19.5c-0.6,10.1,0.8,16.7,1.7,19.8c0.4,1.5,1.3,2.9,2.5,3.9   c3.5,3.1,12.4,9.6,26.9,11.9c1.1,0.2,3.8,1,4.8,1.5c4.7,2.3,18.2,10.4,38.1,33.7c0,0,12.5,17.7,46.5,25.7c0,0,8.3,0.9,11.6,7.1   c2.5,4.6-1.5,9.7-3.7,12c-1.1,1.1-2.7,1.7-4.2,1.4c-1.7-0.4-4-1.6-6.2-5c0,0,0.2,5.3,7.5,7.5c0,0-2.3,4-0.6,10.8   c1.6,6.3-2.3,37.2-32,27.5s-49.5-1.6-49.5-1.6s1.5,3.9-4.1,29.3s-31.6,42.1-39.3,41.8c-7.7-0.2-103.9,2.1-103.9,2.1L1.5,172z"/>
	<path id="Chat" class="st5" d="M1,200.6c0,0,24.5-31.5,78.9-37c0,0,5.2-8.2,5.2-14.3c0-6.1,3.2-26.6,23.9-35.5   c0,0,7.8-23.9,38.2-28c0,0-8.4,25.3-5.8,30c0,0,23.1,2.1,31.5,38.3c0,0,8.1,5.1,7.6,10c-0.5,5.7-4.7,6.2-4.7,6.2s-7.8,25.3-37,15.1   c0,0,1.5,2.8,13.3,6.5c0,0,9.8,42.5-30.8,74.9L1,266.8V200.6z"/>
	<path id="Oiseau" class="st4" d="M175.6,9.4c3.1,0.2,16.4,1.2,27.6,5.1c0,0,2,1,2.5,6.1s6.9,9.6,6.9,9.6s0.7,0.4,2.1,0.2   c0.4,0,0.8-0.2,1.2-0.5c0.8-0.7,2.8-1.8,5,0.3l2.3,0.6l-1.9,0.6c0,0-1.7,1.7-3.1,2c-1.5,0.3,0.7,2.4,1.7,2.8   c0.8,0.3,4.1,2,10.5,2.4s5.6,24.8,5.6,24.8s0.1,1.1-1,0.2c-0.5-0.4-0.9-1-1.2-1.6c-1.4-3-6.9-14.6-10-17c-0.3-0.2-1.5-1.3-1.7-1.5   c-1.4-1.3-5.5-4.6-10.6-4.6c-6.1,0-14.1,6.1-14.1,6.1s-1.2-1.7-1.9-1.7c-0.7,0-1.7,0.4-2.1,0.1c-0.5-0.3-1.6-2.3-1.5-3   c0,0,6.1-2.1,9.4-3.7c0,0,0.6-5.3-2.2-9.1s-4.8-7.8-9.4-12.1c0,0-6.3,0.3-14.1-4.1c-7-3.9-3.5-3-1.2-2.4   C174.6,9.3,175.1,9.4,175.6,9.4z"/>
</g>
<path id="Lapin_1_" class="st6" d="M1.1,228.8c0,0,45.4-19.9,75.7-3.4c0,0,3.3-1.4,11-0.9c0,0-1.4-2.5,4-11.7c0,0-18.4-26.1-11.7-43  c0,0,11.7-5.1,25.9,26.1c0,0,9.2-23.2,20.9-28.2c0,0,3.3,0.4-4.6,16.4s-1.3,21.1-1.3,21.1s20.1,6.7,23.8,29.5c0,0,3.4,8.8-11.3,12.2  c-21,4.9-7.1,23.5-7.1,23.5L1.5,270.9"/>
<g>
<text x="23" y="250" fill="444444"  font="90px">AFAYAD PET</text></g>
</svg>
