<svg xmlns="http://www.w3.org/2000/svg" xmlns:xlink="http://www.w3.org/1999/xlink" contentScriptType="text/ecmascript" version="1.2">

<g id="SvgjsG1154"  fill="#111111"><path d="M38.203 39.902344 q0.078125 0.13671875 0.078125 0.33203125 q0 0.29296875 -0.205078125 0.5078125 t-0.53711 0.21484 q-0.21484375 0 -0.380859375 -0.09765625 t-0.26367 -0.29297 q-0.37109375 -0.72265625 -0.654296875 -1.806640625 t-0.48828 -2.4121 t-0.33203 -2.8613 t-0.20508 -3.1738 l-7.4609 0.97656 q-1.640625 0.234375 -3.33984375 0.41015625 q-4.1796875 4.55078125 -8.798828125 6.904296875 t-9.2676 2.3535 q-2.0703125 0 -3.583984375 -0.400390625 t-2.5 -0.89844 t-1.4746 -0.92773 l-0.54688 -0.46875 q-0.1953125 -0.1953125 -0.1953125 -0.5078125 t0.21484 -0.52734 t0.52734 -0.21484 t0.52734 0.23438 l0.46875 0.39063 q0.4296875 0.37109375 1.279296875 0.78125 t2.1582 0.74219 t3.1055 0.33203 q2.4609375 0 4.70703125 -0.6640625 t4.248 -1.7285 t3.7305 -2.4316 t3.1348 -2.7734 q-1.38671875 0.1171875 -2.75390625 0.17578125 t-2.6953 0.058594 q-2.6171875 0 -4.98046875 -0.29296875 t-4.1602 -0.98633 t-2.8613 -1.8457 t-1.0645 -2.8711 q0 -0.78125 0.322265625 -1.5625 t0.77148 -1.416 t0.9375 -1.0352 t0.83984 -0.40039 q0.2734375 0 0.5078125 0.1953125 t0.23438 0.52734 q0 0.17578125 -0.078125 0.341796875 t-0.23438 0.26367 l-0.33203 0.27344 q-0.29296875 0.234375 -0.625 0.634765625 t-0.60547 0.95703 t-0.27344 1.2012 q0 1.11328125 0.771484375 1.962890625 t2.2461 1.4258 t3.623 0.86914 t4.9023 0.29297 q1.58203125 0 3.33984375 -0.09765625 t3.7109 -0.29297 q0.9375 -1.03515625 1.66015625 -1.953125 t1.2305 -1.6406 q0.83984375 -1.19140625 1.7578125 -2.5390625 t1.8262 -2.7344 t1.7871 -2.7539 l1.6211 -2.5586 q0.76171875 -1.19140625 1.3671875 -2.1875 l0.99609 -1.6211 q0.1171875 -0.52734375 0.3515625 -0.966796875 t0.76172 -0.43945 q0.29296875 0 0.56640625 0.244140625 t0.27344 0.61523 q0 0.2734375 -0.1953125 0.5859375 t-0.37109 0.52734 q-0.05859375 0.37109375 -0.185546875 1.58203125 t-0.25391 2.959 t-0.21484 3.8477 t-0.087891 4.248 l0 1.582 l0.039063 1.582 q2.9296875 -0.37109375 4.27734375 -0.517578125 t1.4258 -0.14648 q0.25390625 0 0.498046875 0.205078125 t0.24414 0.53711 q0 0.2734375 -0.185546875 0.478515625 t-0.47852 0.24414 l-3.5742 0.41016 l-2.1484 0.27344 q0.05859375 1.6015625 0.185546875 3.076171875 t0.3125 2.7441 t0.43945 2.2852 t0.58594 1.6602 z M27.559 29.823999999999998 q2.3046875 -0.3125 4.19921875 -0.56640625 l3.3984 -0.42969 l-0.019531 -1.6797 l-0.019531 -1.6992 q0 -2.75390625 0.09765625 -5.263671875 t0.27344 -4.3652 l-1.7188 2.7148 q-0.95703125 1.50390625 -1.97265625 3.056640625 t-2.0508 3.0762 t-1.9727 2.8516 q-0.46875 0.6640625 -0.95703125 1.2890625 t-0.97656 1.2305 q0.4296875 -0.0390625 0.859375 -0.09765625 z M44.55075625 40.95703 q1.4453125 -0.64453125 2.626953125 -1.484375 t2.1094 -1.7676 t1.582 -1.8945 t1.0449 -1.8457 q0.17578125 -0.4296875 0.6640625 -0.4296875 q0.33203125 0 0.537109375 0.224609375 t0.20508 0.49805 q0 0.15625 -0.05859375 0.29296875 q-0.4296875 0.95703125 -1.09375 1.982421875 t-1.6113 2.0117 t-2.2168 1.9043 t-2.9102 1.6797 q1.0546875 1.09375 1.8359375 2.431640625 t1.2988 2.7832 t0.78125 2.9199 t0.26367 2.8223 q0 1.23046875 -0.224609375 2.314453125 t-0.66406 1.8848 t-1.0645 1.2598 t-1.4258 0.45898 q-1.171875 0 -1.81640625 -0.869140625 t-0.94727 -2.4023 t-0.35156 -3.6133 t-0.048828 -4.5215 l0.019531 -6.2891 q0 -3.45703125 0.009765625 -3.8671875 t0.029297 -4.0527 t0.039063 -3.9941 t0.068359 -3.7109 t0.22461 -5.9961 t0.56641 -4.4531 t1.0645 -2.7637 t1.709 -0.94727 q0.8203125 0 1.38671875 0.458984375 t0.91797 1.2305 t0.50781 1.8066 t0.15625 2.168 q0 2.3828125 -0.41015625 4.609375 t-1.1133 4.3164 t-1.6504 4.082 t-2.0215 3.9258 l0 5.3516 q-0.01953125 1.77734375 -0.01953125 1.484375 z M44.60935625 31.113300000000002 q0.80078125 -1.50390625 1.474609375 -3.173828125 t1.1621 -3.4473 t0.76172 -3.6328 t0.27344 -3.7305 q0 -0.9375 -0.087890625 -1.69921875 t-0.27344 -1.2988 t-0.46875 -0.83984 t-0.66406 -0.30273 t-0.67383 0.46875 t-0.50781 1.25 t-0.36133 1.7969 t-0.24414 2.1191 t-0.15625 2.207 t-0.087891 2.0703 t-0.029297 1.709 l-0.019531 1.1133 l-0.078125 3.8281 z M44.55075625 43.3594 l0 2.2852 l-0.019531 1.9531 q0 1.81640625 0.01953125 3.59375 t0.18555 3.1934 t0.50781 2.2852 t0.98633 0.86914 q0.5859375 0 0.95703125 -0.52734375 t0.57617 -1.25 t0.2832 -1.4746 t0.078125 -1.2207 q0 -1.19140625 -0.224609375 -2.5 t-0.68359 -2.5879 t-1.123 -2.4707 t-1.543 -2.1484 z M67.011875 34.5508 q-0.078125 0.15625 -0.322265625 0.654296875 t-0.625 1.1426 t-0.88867 1.3477 t-1.1328 1.2891 t-1.3477 0.9668 t-1.5234 0.38086 q-1.1328125 0 -1.904296875 -0.72265625 t-1.123 -1.8164 q-0.6640625 1.11328125 -1.58203125 1.767578125 t-1.8359 0.6543 q-0.72265625 0 -1.30859375 -0.263671875 t-0.99609 -0.74219 t-0.63477 -1.123 t-0.22461 -1.4063 q0 -1.5234375 0.517578125 -2.685546875 t1.3184 -1.9434 t1.7676 -1.1719 t1.8652 -0.39063 q0.60546875 0 1.11328125 0.166015625 t0.86914 0.36133 t0.55664 0.35156 l0.21484 0.19531 q0.21484375 0.25390625 0.21484375 0.537109375 t-0.21484 0.50781 t-0.51758 0.22461 t-0.51758 -0.21484 l-0.17578 -0.15625 q-0.13671875 -0.09765625 -0.37109375 -0.21484375 t-0.55664 -0.20508 t-0.73242 -0.087891 q-0.60546875 0 -1.2890625 0.2734375 t-1.25 0.84961 t-0.94727 1.4453 t-0.38086 2.0605 q0 0.37109375 0.078125 0.751953125 t0.27344 0.69336 t0.52734 0.50781 t0.82031 0.19531 q0.3515625 0 0.810546875 -0.234375 t0.87891 -0.72266 t0.76172 -1.2305 t0.47852 -1.7578 q0.0390625 -0.2734375 0.25390625 -0.458984375 t0.49805 -0.18555 t0.48828 0.21484 t0.22461 0.48828 q0.01953125 0.37109375 0.078125 1.044921875 t0.26367 1.3379 t0.61523 1.1523 t1.1328 0.48828 q0.46875 0 0.927734375 -0.25390625 t0.89844 -0.67383 t0.83984 -0.95703 t0.73242 -1.084 t0.58594 -1.0547 l0.42969 -0.87891 q0.09765625 -0.21484375 0.283203125 -0.33203125 t0.40039 -0.11719 q0.33203125 0 0.537109375 0.244140625 t0.20508 0.51758 q0 0.13671875 -0.05859375 0.2734375 z M72.929675 40.27344 q0.68359375 -0.68359375 1.38671875 -1.396484375 t1.3672 -1.4941 t1.2402 -1.6309 t1.0254 -1.8066 q0.09765625 -0.21484375 0.2734375 -0.322265625 t0.39063 -0.10742 q0.33203125 0 0.537109375 0.234375 t0.20508 0.52734 q0 0.15625 -0.05859375 0.29296875 q-0.60546875 1.26953125 -1.38671875 2.32421875 t-1.6406 2.002 t-1.7383 1.8359 t-1.6797 1.7871 q-0.078125 1.34765625 0 2.705078125 t0.078125 2.8809 q0 1.25 -0.078125 2.5 t-0.25391 2.3926 t-0.47852 2.1387 t-0.77148 1.7285 t-1.0938 1.1523 t-1.4648 0.41992 q-1.38671875 0 -2.12890625 -0.95703125 t-0.74219 -2.6758 q0 -0.9375 0.205078125 -2.01171875 t0.57617 -2.2168 t0.88867 -2.3145 t1.123 -2.2852 t1.2891 -2.1191 t1.3867 -1.8262 l0.097656 -1.9531 q0.0390625 -0.99609375 0.09765625 -1.85546875 q-0.5078125 0.8984375 -1.259765625 1.4453125 t-1.6504 0.54688 q-1.484375 0 -2.32421875 -0.99609375 t-0.83984 -2.7344 q0 -1.26953125 0.244140625 -2.314453125 t0.52734 -1.7969 t0.51758 -1.1523 t0.23438 -0.38086 q0.21484375 -0.33203125 0.60546875 -0.33203125 q0.33203125 0 0.537109375 0.224609375 t0.20508 0.51758 q0 0.21484375 -0.1171875 0.390625 q0.01953125 -0.01953125 -0.185546875 0.322265625 t-0.44922 0.98633 t-0.44922 1.543 t-0.20508 1.9727 t0.39063 1.6797 t1.2695 0.60547 q1.11328125 0 2.01171875 -1.650390625 t1.5234 -4.7949 q0.0390625 -0.25390625 0.234375 -0.419921875 t0.48828 -0.16602 t0.50781 0.21484 t0.21484 0.52734 q0 0.05859375 -0.078125 0.693359375 t-0.18555 1.6895 t-0.22461 2.4512 t-0.19531 2.9785 z M71.367175 44.4141 q-0.87890625 1.26953125 -1.611328125 2.67578125 t-1.2598 2.793 t-0.82031 2.6563 t-0.29297 2.2754 t0.33203 1.582 t1.0547 0.57617 q0.64453125 0 1.142578125 -0.634765625 t0.83984 -1.8066 t0.51758 -2.8418 t0.17578 -3.7402 q0 -0.83984375 -0.029296875 -1.69921875 t-0.048828 -1.8359 z M93.04703125 34.5508 q-0.078125 0.15625 -0.322265625 0.654296875 t-0.625 1.1426 t-0.88867 1.3477 t-1.1328 1.2891 t-1.3477 0.9668 t-1.5234 0.38086 q-1.1328125 0 -1.904296875 -0.72265625 t-1.123 -1.8164 q-0.6640625 1.11328125 -1.58203125 1.767578125 t-1.8359 0.6543 q-0.72265625 0 -1.30859375 -0.263671875 t-0.99609 -0.74219 t-0.63477 -1.123 t-0.22461 -1.4063 q0 -1.5234375 0.517578125 -2.685546875 t1.3184 -1.9434 t1.7676 -1.1719 t1.8652 -0.39063 q0.60546875 0 1.11328125 0.166015625 t0.86914 0.36133 t0.55664 0.35156 l0.21484 0.19531 q0.21484375 0.25390625 0.21484375 0.537109375 t-0.21484 0.50781 t-0.51758 0.22461 t-0.51758 -0.21484 l-0.17578 -0.15625 q-0.13671875 -0.09765625 -0.37109375 -0.21484375 t-0.55664 -0.20508 t-0.73242 -0.087891 q-0.60546875 0 -1.2890625 0.2734375 t-1.25 0.84961 t-0.94727 1.4453 t-0.38086 2.0605 q0 0.37109375 0.078125 0.751953125 t0.27344 0.69336 t0.52734 0.50781 t0.82031 0.19531 q0.3515625 0 0.810546875 -0.234375 t0.87891 -0.72266 t0.76172 -1.2305 t0.47852 -1.7578 q0.0390625 -0.2734375 0.25390625 -0.458984375 t0.49805 -0.18555 t0.48828 0.21484 t0.22461 0.48828 q0.01953125 0.37109375 0.078125 1.044921875 t0.26367 1.3379 t0.61523 1.1523 t1.1328 0.48828 q0.46875 0 0.927734375 -0.25390625 t0.89844 -0.67383 t0.83984 -0.95703 t0.73242 -1.084 t0.58594 -1.0547 l0.42969 -0.87891 q0.09765625 -0.21484375 0.283203125 -0.33203125 t0.40039 -0.11719 q0.33203125 0 0.537109375 0.244140625 t0.20508 0.51758 q0 0.13671875 -0.05859375 0.2734375 z M99.27733125 34.3164 q0.95703125 4.51171875 2.7734375 4.51171875 q0.703125 0 1.34765625 -0.517578125 t1.2012 -1.2695 t0.98633 -1.5918 t0.70313 -1.4648 q0.1953125 -0.46875 0.68359375 -0.46875 q0.3125 0 0.52734375 0.234375 t0.21484 0.50781 q0 0.15625 -0.05859375 0.2734375 q-0.13671875 0.33203125 -0.400390625 0.888671875 t-0.64453 1.1914 t-0.84961 1.2988 t-1.0352 1.1914 t-1.2012 0.86914 t-1.3379 0.3418 q-1.30859375 0 -2.24609375 -0.908203125 t-1.6211 -2.998 q-0.9375 1.9921875 -1.89453125 2.890625 t-2.0703 0.89844 q-0.5859375 0 -1.1328125 -0.185546875 t-0.95703 -0.61523 t-0.66406 -1.1035 t-0.25391 -1.6504 q0 -1.34765625 0.46875 -2.48046875 t1.2109 -1.9434 t1.6504 -1.2598 t1.8066 -0.44922 q0.29296875 0 0.5078125 0.205078125 t0.21484 0.49805 t-0.17578 0.50781 t-0.46875 0.25391 q-0.5859375 0.078125 -1.25 0.37109375 t-1.2207 0.84961 t-0.91797 1.416 t-0.36133 2.0508 q0 0.9765625 0.400390625 1.5234375 t1.1621 0.54688 q0.3125 0 0.6640625 -0.166015625 t0.75195 -0.6543 t0.87891 -1.3867 t1.0645 -2.3633 q-0.33203125 -1.71875 -0.60546875 -3.96484375 t-0.27344 -5.0195 q0 -1.2109375 0.078125 -2.529296875 t0.25391 -2.5781 t0.46875 -2.3926 t0.71289 -1.9922 t0.98633 -1.3574 t1.2891 -0.49805 q0.64453125 0 1.09375 0.3515625 t0.73242 0.97656 t0.41992 1.5039 t0.13672 1.9336 q0 2.265625 -0.390625 4.53125 t-0.9668 4.3359 t-1.2207 3.8281 t-1.1719 3.0273 z M101.56203125 18.574 q0 -0.48828125 -0.029296875 -1.0546875 t-0.13672 -1.0645 t-0.2832 -0.83008 t-0.46875 -0.33203 q-0.48828125 0 -0.908203125 0.859375 t-0.73242 2.2559 t-0.49805 3.1641 t-0.18555 3.5645 q0 1.71875 0.13671875 3.4375 t0.3125 3.0664 q0.56640625 -1.50390625 1.07421875 -3.095703125 t0.88867 -3.252 t0.60547 -3.3496 t0.22461 -3.3691 z M132.63646875 11.27 q2.40234375 0 4.90234375 0.439453125 t4.8633 1.3379 t4.4531 2.2559 t3.6523 3.1738 t2.4707 4.1016 t0.9082 5.0586 t-0.97656 5.1367 t-2.7344 4.082 t-4.1992 2.6953 t-5.3711 0.97656 q-1.38671875 0 -2.87109375 -0.205078125 t-2.9688 -0.63477 t-2.9199 -1.0645 t-2.7441 -1.5137 q-1.54296875 1.5234375 -3.564453125 2.373046875 t-4.2676 0.84961 q-1.2109375 0 -2.265625 -0.2734375 t-1.8262 -0.78125 t-1.2109 -1.2305 t-0.43945 -1.6016 q0 -0.76171875 0.380859375 -1.42578125 t1.0742 -1.1719 t1.6602 -0.80078 t2.1191 -0.29297 q3.3984375 0 8.046875 2.5 q0.859375 -1.07421875 1.40625 -2.421875 q0.60546875 -1.50390625 0.947265625 -3.095703125 t0.60547 -3.1738 t0.54688 -3.0859 t0.78125 -2.832 t1.3086 -2.4316 t2.1191 -1.8848 q0.1953125 -0.09765625 0.3515625 -0.09765625 q0.2734375 0 0.517578125 0.1953125 t0.24414 0.54688 q0 0.41015625 -0.37109375 0.625 q-1.03515625 0.60546875 -1.689453125 1.513671875 t-1.084 2.041 t-0.68359 2.4414 t-0.48828 2.7344 q-0.1953125 1.171875 -0.4296875 2.451171875 t-0.58594 2.5391 t-0.88867 2.4609 t-1.3184 2.2168 l0.097656 0.058594 q2.48046875 1.484375 5.15625 2.24609375 t5.2344 0.76172 q2.7734375 0 4.970703125 -0.91796875 t3.7207 -2.4707 t2.3242 -3.623 t0.80078 -4.3945 t-0.78125 -4.3457 t-2.1387 -3.6816 t-3.2227 -2.9492 t-4.0234 -2.1582 t-4.5313 -1.3281 t-4.7559 -0.45898 q-3.203125 0 -5.849609375 0.537109375 t-4.5508 1.5723 t-2.959 2.5391 t-1.0547 3.418 q0 1.09375 0.322265625 1.93359375 t0.82031 1.4551 t1.084 1.0449 t1.0938 0.69336 t0.87891 0.38086 l0.41016 0.13672 q0.25390625 0.05859375 0.400390625 0.263671875 t0.14648 0.45898 q0 0.33203125 -0.234375 0.5078125 t-0.50781 0.17578 q-0.390625 0 -0.9765625 -0.185546875 t-1.2402 -0.56641 t-1.3086 -0.95703 t-1.1816 -1.3574 t-0.84961 -1.7773 t-0.32227 -2.207 q0 -2.20703125 1.123046875 -3.974609375 t3.1738 -2.998 t4.9121 -1.8945 t6.3574 -0.66406 z M127.75346875 36.3672 q-2.03125 -1.07421875 -3.76953125 -1.62109375 t-3.1836 -0.54688 q-0.8203125 0 -1.513671875 0.185546875 t-1.2012 0.49805 t-0.80078 0.72266 t-0.29297 0.84961 t0.26367 0.86914 t0.80078 0.76172 t1.3379 0.54688 t1.875 0.21484 q1.8359375 0 3.505859375 -0.654296875 t2.9785 -1.8262 z M158.33980625 37.8516 q0.41015625 0.56640625 1.0546875 0.908203125 t1.5918 0.3418 t1.7285 -0.45898 t1.4258 -1.2012 t1.1523 -1.6602 t0.91797 -1.8359 q0.09765625 -0.21484375 0.2734375 -0.322265625 t0.39063 -0.10742 q0.33203125 0 0.537109375 0.234375 t0.20508 0.50781 q0 0.09765625 -0.01953125 0.166015625 t-0.058594 0.14648 q-1.34765625 2.96875 -2.939453125 4.47265625 t-3.6035 1.543 q-1.2890625 0 -2.2265625 -0.498046875 t-1.543 -1.2891 t-0.89844 -1.7871 t-0.29297 -1.9922 t0.24414 -1.8359 t0.70313 -1.4648 t1.0938 -0.97656 t1.3965 -0.35156 q0.44921875 0 0.888671875 0.185546875 t0.79102 0.52734 t0.56641 0.83008 t0.21484 1.1133 q0 0.80078125 -0.2734375 1.50390625 t-0.75195 1.3086 t-1.1426 1.1133 t-1.4258 0.87891 z M157.75390625 36.582 q0.60546875 -0.25390625 1.103515625 -0.64453125 t0.84961 -0.85938 t0.54688 -0.98633 t0.19531 -1.0449 q0 -0.5859375 -0.29296875 -0.888671875 t-0.68359 -0.30273 q-0.52734375 0 -0.8984375 0.29296875 t-0.60547 0.76172 t-0.3418 1.0449 t-0.10742 1.1426 q0 0.3515625 0.068359375 0.7421875 t0.16602 0.74219 z M178.98475 34.5898 q-0.1171875 0.21484375 -0.400390625 0.78125 t-0.76172 1.2793 t-1.1426 1.4746 t-1.5234 1.3965 t-1.9238 1.0449 t-2.3145 0.41016 q-1.11328125 0 -1.97265625 -0.400390625 t-1.4648 -1.1328 t-0.91797 -1.7285 t-0.3125 -2.1875 t0.33203 -2.2168 t0.9082 -1.7871 t1.3379 -1.2012 t1.6211 -0.43945 q0.64453125 0 1.171875 0.224609375 t0.88867 0.5957 t0.56641 0.82031 t0.20508 0.88867 t-0.10742 0.81055 t-0.27344 0.6543 t-0.38086 0.44922 t-0.42969 0.16602 q-0.33203125 0 -0.537109375 -0.21484375 t-0.20508 -0.52734 q0 -0.15625 0.078125 -0.2734375 l0.15625 -0.25391 q0.078125 -0.1171875 0.146484375 -0.302734375 t0.068359 -0.47852 q0 -0.41015625 -0.380859375 -0.7421875 t-0.94727 -0.33203 t-1.0645 0.33203 t-0.86914 0.88867 t-0.5957 1.3086 t-0.22461 1.5723 t0.19531 1.543 t0.58594 1.2793 t0.98633 0.88867 t1.416 0.33203 q1.0546875 0 1.953125 -0.380859375 t1.6406 -0.9668 t1.3086 -1.2793 t0.9668 -1.3086 t0.625 -1.0742 t0.26367 -0.57617 q0.078125 -0.1953125 0.263671875 -0.302734375 t0.40039 -0.10742 q0.33203125 0 0.537109375 0.234375 t0.20508 0.52734 q0 0.1171875 -0.078125 0.3125 z M186.6601625 37.8516 q-0.48828125 0 -0.859375 -0.078125 q-0.29296875 0.5859375 -0.703125 1.083984375 t-0.94727 0.86914 t-1.2012 0.58594 t-1.4453 0.21484 q-0.91796875 0 -1.6796875 -0.322265625 t-1.3281 -0.89844 t-0.87891 -1.3867 t-0.3125 -1.7871 q0 -1.25 0.44921875 -2.177734375 t1.0352 -1.543 t1.1719 -0.91797 t0.89844 -0.30273 t0.47852 0.17578 t0.16602 0.48828 t-0.20508 0.47852 t-0.51758 0.32227 t-0.66406 0.43945 t-0.6543 0.71289 t-0.49805 1.0156 t-0.19531 1.3086 q0 0.64453125 0.1953125 1.201171875 t0.56641 0.95703 t0.87891 0.625 t1.1328 0.22461 q1.11328125 0 1.845703125 -0.517578125 t1.123 -1.3184 q-1.15234375 -0.60546875 -1.89453125 -1.71875 t-0.74219 -2.5 q0 -1.11328125 0.537109375 -1.81640625 t1.416 -0.70313 q0.52734375 0 0.99609375 0.25390625 t0.83008 0.80078 t0.57617 1.4063 t0.21484 2.0508 q0 0.625 -0.15625 1.30859375 q0.1171875 0.01953125 0.234375 0.01953125 l0.25391 0 q0.6640625 0 1.19140625 -0.15625 t0.95703 -0.46875 t0.77148 -0.80078 t0.6543 -1.1328 q0.05859375 -0.1171875 0.25390625 -0.224609375 t0.39063 -0.10742 q0.25390625 0 0.478515625 0.205078125 t0.22461 0.53711 q0 0.15625 -0.078125 0.341796875 t-0.15625 0.3418 q-0.33203125 0.5859375 -0.771484375 1.123046875 t-1.0352 0.9375 t-1.3379 0.63477 t-1.6602 0.21484 z M183.3203625 32.9297 q0 0.37109375 0.09765625 0.78125 t0.30273 0.81055 t0.50781 0.76172 t0.71289 0.61523 q0.05859375 -0.41015625 0.05859375 -0.80078125 q0 -0.52734375 -0.078125 -1.07421875 t-0.22461 -1.0059 t-0.36133 -0.74219 t-0.50781 -0.2832 q-0.1171875 0 -0.3125 0.17578125 t-0.19531 0.76172 z"></path></g>

</svg>